# xmcd CD database file
# Generated: Fri May 17 08:27:55 2002 by KSCD
# 
# Track frame offsets:
#       150
#       11250
#       27960
#       47117
#       60807
#       71725
#       84680
#       94160
#       107632
#       119755
#       130382
#       143590
#       154327
#       166107
#       179247
#       191822
#       207047
#       218220
#       229155
#       238792
#       251037
#       264207
#
# Disc length: 3709 seconds
#
# Revision: 1
# Processed by: cddbd v1.4PL0 Copyright (c) Steve Scherf et al.
# Submitted via: Kscd 1.3.3
#
DISCID=3c0e7b16
DTITLE=Various Artist - Halfway To Paradise
DYEAR=1900
DGENRE=
TTITLE0=Halfway To Paradise
TTITLE1=You've Lost That Loving Feeling
TTITLE2=He Ain't Heavy (He's My Brother)
TTITLE3=The Sun Ain't Gonna Shine Anymore
TTITLE4=Ferry 'Cross The Mersey
TTITLE5=I'll Never Fall In Love Again
TTITLE6=I Believe
TTITLE7=Love Is All Around
TTITLE8=A World Without Love
TTITLE9=Step Inside Love
TTITLE10=There Goes My Everything
TTITLE11=Juliet
TTITLE12=I Understand (Just How You Feel)
TTITLE13=Sloop John B
TTITLE14=Little Children
TTITLE15=You've Got Your Troubles
TTITLE16=Secret Love
TTITLE17=Afrikaan Beat
TTITLE18=The Game Of Love
TTITLE19=The Crying Game
TTITLE20=What Now My Love
TTITLE21=Wichita Lineman
EXTD=
EXTT0=
EXTT1=
EXTT2=
EXTT3=
EXTT4=
EXTT5=
EXTT6=
EXTT7=
EXTT8=
EXTT9=
EXTT10=
EXTT11=
EXTT12=
EXTT13=
EXTT14=
EXTT15=
EXTT16=
EXTT17=
EXTT18=
EXTT19=
EXTT20=
EXTT21=
PLAYORDER=
